<svg width="24" height="25" viewBox="0 0 24 25" fill="none" xmlns="http://www.w3.org/2000/svg">
<path fill-rule="evenodd" clip-rule="evenodd" d="M7.23604 2.24915C7.60843 1.49395 8.41173 0.969147 9.34005 0.969147H14.6599C15.5883 0.969147 16.3902 1.49395 16.764 2.24915C17.6723 2.25683 18.3812 2.29651 19.0143 2.53459C19.77 2.81909 20.4273 3.3026 20.9108 3.92979C21.3989 4.56211 21.629 5.37235 21.9429 6.48723L22.9297 9.97139L23.3021 11.0479L23.334 11.0863C24.5323 12.5634 23.9618 14.7599 22.8207 19.1515C22.0945 21.9458 21.7327 23.3423 20.6501 24.1563C19.5675 24.9691 18.0713 24.9691 15.0789 24.9691H8.92111C5.92867 24.9691 4.43245 24.9691 3.34985 24.1563C2.26726 23.3423 1.90417 21.9458 1.17934 19.1515C0.0382206 14.7599 -0.532338 12.5634 0.665968 11.0863L0.697887 11.0479L1.07028 9.97139L2.05712 6.48723C2.37232 5.37235 2.60241 4.56083 3.08918 3.92851C3.57293 3.30179 4.23016 2.81874 4.98572 2.53459C5.61879 2.29651 6.32633 2.25555 7.23604 2.24915ZM7.2387 4.17299C6.35825 4.18195 6.00448 4.21395 5.71189 4.32403C5.30487 4.47722 4.95089 4.73761 4.69047 5.07539C4.45639 5.37875 4.31807 5.80243 3.93238 7.16819L3.1743 9.84211C4.53087 9.60915 6.38485 9.60915 8.91978 9.60915H15.0789C17.6151 9.60915 19.4678 9.60915 20.8244 9.83955L20.0676 7.16563C19.6819 5.79987 19.5436 5.37619 19.3095 5.07283C19.0491 4.73505 18.6951 4.47466 18.2881 4.32147C17.9955 4.21139 17.6417 4.17939 16.7613 4.17043C16.5725 4.55295 16.2748 4.87612 15.9029 5.10244C15.531 5.32877 15.1 5.44899 14.6599 5.44915H9.34005C8.90016 5.4491 8.46928 5.32908 8.09737 5.10298C7.72545 4.87689 7.42773 4.55527 7.2387 4.17299Z" fill="#F8F8F8"/>
</svg>
