<svg width="32" height="32" viewBox="0 0 32 32" fill="none" xmlns="http://www.w3.org/2000/svg">
<path d="M26.6667 8C27.0065 8.00038 27.3334 8.13051 27.5805 8.3638C27.8276 8.59709 27.9763 8.91594 27.9962 9.2552C28.0161 9.59445 27.9058 9.92851 27.6876 10.1891C27.4695 10.4497 27.1601 10.6172 26.8227 10.6573L26.6667 10.6667H26.5587L25.3333 25.3333C25.3334 26.3536 24.9436 27.3354 24.2436 28.0777C23.5437 28.82 22.5865 29.2668 21.568 29.3267L21.3333 29.3333H10.6667C8.53599 29.3333 6.79465 27.668 6.67732 25.6667L6.67065 25.444L5.43999 10.6667H5.33332C4.99348 10.6663 4.66661 10.5362 4.4195 10.3029C4.17238 10.0696 4.02367 9.75073 4.00376 9.41148C3.98384 9.07222 4.09422 8.73817 4.31234 8.47756C4.53046 8.21696 4.83986 8.04948 5.17732 8.00934L5.33332 8H26.6667ZM18.6667 2.66667C19.3739 2.66667 20.0522 2.94762 20.5523 3.44772C21.0524 3.94782 21.3333 4.62609 21.3333 5.33334C21.3329 5.67318 21.2028 6.00005 20.9695 6.24716C20.7362 6.49428 20.4174 6.64298 20.0781 6.6629C19.7389 6.68282 19.4048 6.57244 19.1442 6.35432C18.8836 6.1362 18.7161 5.8268 18.676 5.48934L18.6667 5.33334H13.3333L13.324 5.48934C13.2838 5.8268 13.1164 6.1362 12.8558 6.35432C12.5952 6.57244 12.2611 6.68282 11.9218 6.6629C11.5826 6.64298 11.2637 6.49428 11.0305 6.24716C10.7972 6.00005 10.667 5.67318 10.6667 5.33334C10.6664 4.66057 10.9205 4.01258 11.378 3.51927C11.8354 3.02597 12.4624 2.7238 13.1333 2.67334L13.3333 2.66667H18.6667Z" fill="#FF6C6C"/>
</svg>
