<svg width="44" height="44" viewBox="0 0 44 44" fill="none" xmlns="http://www.w3.org/2000/svg">
<g clip-path="url(#clip0_11_91)">
<path d="M25.685 22.0138C25.685 9.96875 25.7125 0.09075 25.7483 0.06325C25.7758 0.0275 27.599 0 29.7853 0C32.956 0 33.9378 0.0275 34.5785 0.1375C39.336 0.957 42.9523 4.5375 43.8543 9.284C43.9808 9.9495 44 11.5087 44 21.9615C44 33.1265 44.0138 34.4383 43.6618 35.6455C43.6013 35.8545 43.5298 36.058 43.4418 36.311C42.7464 38.3373 41.4933 40.1262 39.8267 41.4723C38.1601 42.8183 36.1475 43.6668 34.0203 43.9202C33.1485 44.011 26.0755 44.0467 25.8308 43.956C25.6933 43.901 25.685 41.888 25.685 22.0138ZM38.5413 22.7535C38.3024 22.0654 37.8985 21.4465 37.3649 20.9507C36.8313 20.455 36.1843 20.0977 35.4805 19.91C34.3833 19.6263 33.2191 19.7742 32.2276 20.3231C31.2362 20.872 30.4929 21.7803 30.151 22.8607C29.9242 23.7012 29.911 24.5851 30.1125 25.432C30.4471 26.5304 31.1905 27.4585 32.1893 28.0249C33.1881 28.5914 34.3661 28.7529 35.4805 28.4762C36.883 28.1022 37.9775 27.0902 38.533 25.6493C38.8355 24.8655 38.8438 23.6088 38.5413 22.7535ZM10.2025 9.12175C9.63053 9.23175 8.75603 9.669 8.29128 10.0787C7.33428 10.9065 6.86128 12.0835 6.93278 13.4667C6.96853 14.1872 7.01528 14.3798 7.30678 14.9627C7.73303 15.8455 8.37928 16.4918 9.26478 16.929C9.87528 17.2315 10.0293 17.2673 10.824 17.2948C11.5418 17.3223 11.7975 17.2948 12.2815 17.1297C14.2588 16.4643 15.4523 14.5448 15.114 12.5758C14.7235 10.2327 12.5015 8.66525 10.2025 9.12175Z" fill="#F8F8F8"/>
<path d="M9.41897 0.14576C7.28149 0.524096 5.29671 1.50561 3.69859 2.97462C2.10047 4.44362 0.955615 6.33889 0.398974 8.43701C0.000223663 9.97701 -0.0272764 10.879 0.0139736 22.825C0.0414736 33.7975 0.0524736 34.0505 0.233974 34.8975C1.24597 39.4625 4.49097 42.7185 9.09997 43.7938C9.70497 43.9313 10.4667 43.9588 15.3975 43.9863C20.5015 44.0193 21.0295 44.011 21.1642 43.8763C21.3017 43.7388 21.31 41.9788 21.31 22.0413C21.31 7.26276 21.2825 0.29976 21.2192 0.17326C21.1285 0.00825986 20.9717 9.85432e-06 15.6367 0.00825985C11.2972 0.0192599 9.99372 0.0467599 9.42172 0.14576H9.41897ZM17.669 40.4745L13.9565 40.4305C10.541 40.3948 10.1752 40.3755 9.49322 40.2023C8.07367 39.8519 6.78267 39.1059 5.77016 38.051C4.75765 36.9962 4.0652 35.6757 3.77322 34.243C3.56972 33.3218 3.56972 10.6508 3.76222 9.74876C4.02786 8.49484 4.59698 7.32521 5.41969 6.34236C6.24241 5.35951 7.29363 4.59343 8.48122 4.11126C9.68572 3.62726 10.2412 3.57226 14.1407 3.56126L17.6662 3.55301V40.4745H17.669Z" fill="#F8F8F8"/>
</g>
<defs>
<clipPath id="clip0_11_91">
<rect width="44" height="44" fill="white"/>
</clipPath>
</defs>
</svg>
