<svg width="24" height="24" viewBox="0 0 24 24" fill="none" xmlns="http://www.w3.org/2000/svg">
<path fill-rule="evenodd" clip-rule="evenodd" d="M6 4.5H18C19.5913 4.5 21.1174 5.13214 22.2426 6.25736C23.3679 7.38258 24 8.9087 24 10.5V15C24 16.5913 23.3679 18.1174 22.2426 19.2426C21.1174 20.3679 19.5913 21 18 21H6C4.4087 21 2.88258 20.3679 1.75736 19.2426C0.632141 18.1174 0 16.5913 0 15V10.5C0 8.9087 0.632141 7.38258 1.75736 6.25736C2.88258 5.13214 4.4087 4.5 6 4.5ZM6 6C4.80653 6 3.66193 6.47411 2.81802 7.31802C1.97411 8.16193 1.5 9.30653 1.5 10.5V15C1.5 16.1935 1.97411 17.3381 2.81802 18.182C3.66193 19.0259 4.80653 19.5 6 19.5H18C19.1935 19.5 20.3381 19.0259 21.182 18.182C22.0259 17.3381 22.5 16.1935 22.5 15V10.5C22.5 9.30653 22.0259 8.16193 21.182 7.31802C20.3381 6.47411 19.1935 6 18 6H6Z" fill="#F8F8F8"/>
<path d="M8.25 9C8.05109 9 7.86032 9.07902 7.71967 9.21967C7.57902 9.36032 7.5 9.55109 7.5 9.75V12H5.25C5.05109 12 4.86032 12.079 4.71967 12.2197C4.57902 12.3603 4.5 12.5511 4.5 12.75C4.5 12.9489 4.57902 13.1397 4.71967 13.2803C4.86032 13.421 5.05109 13.5 5.25 13.5H7.5V15.75C7.5 15.9489 7.57902 16.1397 7.71967 16.2803C7.86032 16.421 8.05109 16.5 8.25 16.5C8.44891 16.5 8.63968 16.421 8.78033 16.2803C8.92098 16.1397 9 15.9489 9 15.75V13.5H11.25C11.4489 13.5 11.6397 13.421 11.7803 13.2803C11.921 13.1397 12 12.9489 12 12.75C12 12.5511 11.921 12.3603 11.7803 12.2197C11.6397 12.079 11.4489 12 11.25 12H9V9.75C9 9.55109 8.92098 9.36032 8.78033 9.21967C8.63968 9.07902 8.44891 9 8.25 9ZM19.5 10.5C19.5 10.8978 19.342 11.2794 19.0607 11.5607C18.7794 11.842 18.3978 12 18 12C17.6022 12 17.2206 11.842 16.9393 11.5607C16.658 11.2794 16.5 10.8978 16.5 10.5C16.5 10.1022 16.658 9.72064 16.9393 9.43934C17.2206 9.15804 17.6022 9 18 9C18.3978 9 18.7794 9.15804 19.0607 9.43934C19.342 9.72064 19.5 10.1022 19.5 10.5ZM18 15C18 15.3978 17.842 15.7794 17.5607 16.0607C17.2794 16.342 16.8978 16.5 16.5 16.5C16.1022 16.5 15.7206 16.342 15.4393 16.0607C15.158 15.7794 15 15.3978 15 15C15 14.6022 15.158 14.2206 15.4393 13.9393C15.7206 13.658 16.1022 13.5 16.5 13.5C16.8978 13.5 17.2794 13.658 17.5607 13.9393C17.842 14.2206 18 14.6022 18 15Z" fill="#F8F8F8"/>
</svg>
