<svg width="24" height="20" viewBox="0 0 24 20" fill="none" xmlns="http://www.w3.org/2000/svg">
<path d="M23.7866 15.3065C23.3171 15.9462 22.1681 16.4013 22.1681 16.4013L13.6242 19.715V17.271L19.9121 14.853C20.6261 14.5777 20.7356 14.1858 20.1551 13.9817C19.5761 13.776 18.5277 13.8359 17.8152 14.1113L13.6242 15.7049V13.1687L13.8657 13.0812C13.8657 13.0812 15.0762 12.618 16.7787 12.414C18.4812 12.2115 20.5661 12.4415 22.2026 13.1104C24.0476 13.742 24.2546 14.6684 23.7866 15.3065ZM14.4372 11.1475V4.89594C14.4372 4.16228 14.3127 3.48692 13.6752 3.29581C13.1862 3.12576 12.8832 3.61649 12.8832 4.34853V20L8.97422 18.6606V0C10.6362 0.33363 13.0572 1.12074 14.3592 1.59527C17.6697 2.82128 18.7917 4.34853 18.7917 7.7901C18.7917 11.1442 16.8747 12.4156 14.4372 11.1458V11.1475ZM1.80128 17.0184C-0.0917105 16.4386 -0.406708 15.2401 0.455786 14.5502C1.25378 13.9121 2.60977 13.4327 2.60977 13.4327L8.21523 11.2786V13.7323L4.18026 15.2919C3.46926 15.5673 3.35976 15.9576 3.93876 16.1632C4.51776 16.3673 5.56625 16.309 6.27874 16.0337L8.21373 15.2741V17.4702L7.82823 17.5399C5.80958 17.893 3.74176 17.7135 1.80128 17.0168V17.0184Z" fill="#F8F8F8"/>
</svg>
