<svg width="44" height="41" viewBox="0 0 44 41" fill="none" xmlns="http://www.w3.org/2000/svg">
<path d="M19.8056 40.8917C16.3201 40.5559 12.9712 39.4495 10.0376 37.6648C7.56816 36.1665 7.00992 35.5493 7.00992 34.32C7.00992 31.8486 9.93039 27.5179 14.9271 22.5827C17.7623 19.7784 21.7168 16.4926 22.143 16.5822C22.9735 16.7563 29.6175 22.7876 32.1034 25.6253C36.0359 30.1148 37.8454 33.7925 36.9269 35.4315C36.2284 36.6762 31.8944 39.1118 28.7127 40.0465C26.0892 40.8174 22.6435 41.1452 19.8056 40.8917ZM3.6742 31.7487C1.61997 28.8189 0.583224 25.9352 0.0827289 21.7606C-0.0822696 20.3802 -0.0217701 19.594 0.459476 16.7666C1.05897 13.24 3.21495 9.16027 5.80818 6.65044C6.91092 5.58248 7.00992 5.55687 8.35466 5.97688C9.99089 6.48909 11.7371 7.61083 14.4404 9.89017L16.0188 11.2194L15.1581 12.2054C11.1541 16.782 6.93017 23.2691 5.33518 27.2823C4.46894 29.4643 4.11969 31.654 4.49369 32.5657C4.74394 33.1804 4.51294 32.9499 3.6687 31.7487H3.6742ZM39.7016 32.2481C39.9051 31.3262 39.6494 29.6359 39.0471 27.9276C37.7464 24.2321 33.3959 17.3556 29.4002 12.6817L28.1435 11.2091L29.502 10.0464C31.2785 8.52769 32.5132 7.61851 33.8469 6.84508C34.8947 6.23811 36.3962 5.69772 37.0396 5.69772C37.4384 5.69772 38.8381 7.04996 39.9684 8.52513C41.7648 10.9128 43.0213 13.6157 43.6616 16.4695C44.0823 18.334 44.1181 22.3241 43.7276 24.1834C43.361 25.8487 42.8079 27.4736 42.0776 29.0315C41.5854 30.038 40.3616 31.992 39.8226 32.6272C39.5476 32.955 39.5449 32.9524 39.7016 32.2481ZM20.1713 4.99856C18.3288 4.1278 15.4853 3.19302 13.9124 2.94203C13.2219 2.8437 12.523 2.80682 11.8251 2.83191C10.5299 2.89337 10.5876 2.83191 12.6666 1.91505C14.2966 1.1867 16.0189 0.653191 17.7926 0.3272C19.9925 -0.105617 24.134 -0.108179 26.301 0.314395C28.6385 0.775384 31.3967 1.7281 32.9504 2.61934L33.4124 2.88313L32.3537 2.83191C30.2472 2.73459 27.1837 3.52339 23.8893 5.01649C22.8965 5.46723 22.0303 5.82578 21.967 5.81553C21.3588 5.5602 20.7618 5.28775 20.1713 4.99856Z" fill="#F8F8F8"/>
</svg>
